#!OML:ASF H:\ManfredObstacles\Project 1\Capture day 1\Session 1\Male.ASF
:FULLY-SPECIFIED
:DEGREES
369
root 8.30129 16.3604 -3.29642 -174.15 47.371 -180.732
lowerback -9.5668 -3.07483 -4.95007
upperback 2.61952 -3.46652 -0.0564633
thorax 8.46514 -1.93214 2.13357
lowerneck 1.34735 -3.26269 -5.45601
upperneck -4.48987 -3.89429 11.9628
head -1.18003 -2.01537 4.52633
rclavicle -1.40143e-014 -3.97569e-016
rhumerus -39.5599 -24.5208 -73.374
rradius 25.2865
rwrist 34.9806
rhand 0.692561 -5.07216
rfingers 7.12502
rthumb 26.2536 -33.2759
lclavicle -1.40143e-014 -3.97569e-016
lhumerus -20.219 1.54262 88.3165
lradius 23.7266
lwrist -21.4173
lhand -6.54311 9.69281
lfingers 7.12502
lthumb 19.3102 38.7541
rfemur -33.1631 0.156175 14.832
rtibia 22.4437
rfoot -14.6962 5.43805
rtoes 20.1349
lfemur -5.1862 -1.59158 -21.7665
ltibia 17.6513
lfoot -1.39649 -22.0666
ltoes 23.3988
370
root 8.45766 16.3404 -3.38109 -174.267 47.0587 -180.885
lowerback -9.94676 -3.17903 -4.9453
upperback 2.61251 -3.58862 -0.0185377
thorax 8.69046 -1.99516 2.13033
lowerneck 1.41324 -3.26076 -5.64722
upperneck -4.62363 -3.88367 12.0639
head -1.22446 -2.01336 4.59222
rclavicle 1.6847e-014 -1.55052e-014
rhumerus -39.6649 -23.9986 -73.4719
rradius 25.4317
rwrist 34.5943
rhand 0.803802 -5.25362
rfingers 7.12502
rthumb 26.36 -33.4415
lclavicle 1.6847e-014 -1.55052e-014
lhumerus -20.662 2.35977 88.2475
lradius 23.2208
lwrist -21.6065
lhand -5.97805 9.43606
lfingers 7.12502
lthumb 19.8535 38.442
rfemur -32.3317 -0.0881718 14.891
rtibia 21.6417
rfoot -14.4413 6.28488
rtoes 21.1259
lfemur -4.43189 -1.77172 -21.7138
ltibia 17.6109
lfoot -1.84264 -22.5107
ltoes 23.9147
371
root 8.61747 16.3077 -3.45803 -174.22 46.7139 -180.746
lowerback -10.1196 -3.21493 -4.75095
upperback 2.54859 -3.65926 0.0256814
thorax 8.71599 -2.02012 2.04913
lowerneck 1.45672 -3.34033 -5.66155
upperneck -4.6891 -3.98729 12.0613
head -1.2411 -2.06728 4.5959
rclavicle 6.35614e-014 7.95139e-016
rhumerus -40.0205 -24.0447 -73.2796
rradius 25.5185
rwrist 34.6871
rhand 0.790892 -5.37118
rfingers 7.12502
rthumb 26.3477 -33.5609
lclavicle 6.35614e-014 7.95139e-016
lhumerus -21.2562 3.13772 88.0911
lradius 22.71
lwrist -22.0602
lhand -5.46807 9.50894
lfingers 7.12502
lthumb 20.3436 38.4634
rfemur -31.4676 -0.362353 15.2662
rtibia 21.2747
rfoot -13.8724 7.01058
rtoes 21.658
lfemur -3.58007 -1.86461 -21.3873
ltibia 17.4382
lfoot -2.04832 -23.0334
ltoes 24.6576
372
root 8.76734 16.2804 -3.51096 -173.366 46.3676 -179.692
lowerback -10.0946 -3.16396 -3.96558
upperback 2.38384 -3.71947 0.21162
thorax 8.48306 -2.01108 1.80392
lowerneck 1.5001 -3.42745 -5.57133
upperneck -4.80575 -4.08694 12.1047
head -1.2742 -2.12098 4.59707
rclavicle 1.17233e-013 -8.34896e-015
rhumerus -40.287 -24.2129 -73.1851
rradius 25.5567
rwrist 34.6511
rhand 0.850343 -5.61553
rfingers 7.12502
rthumb 26.4046 -33.7967
lclavicle 1.17233e-013 -8.34896e-015
lhumerus -21.8533 4.09129 87.7751
lradius 21.9714
lwrist -23.161
lhand -5.32246 9.53718
lfingers 7.12502
lthumb 20.4836 38.4767
rfemur -30.9004 -0.00924469 16.2343
rtibia 21.253
rfoot -12.6991 6.73382
rtoes 20.7492
lfemur -2.7761 -1.96209 -20.2748
ltibia 16.763
lfoot -1.80337 -23.2749
ltoes 25.4594
373
root 8.923 16.2574 -3.54715 -173.628 46.3422 -180.738
lowerback -10.4783 -3.18162 -4.78603
upperback 2.13662 -3.59393 -0.0186918
thorax 8.46998 -1.97702 2.0296
lowerneck 1.53564 -3.52568 -5.38371
upperneck -5.00898 -4.18422 12.1858
head -1.3328 -2.17574 4.59482
rclavicle -2.52953e-014 7.95139e-015
rhumerus -40.3864 -24.1393 -73.4463
rradius 25.6738
rwrist 34.2645
rhand 1.04594 -6.01898
rfingers 7.12502
rthumb 26.5918 -34.1719
lclavicle -2.52953e-014 7.95139e-015
lhumerus -22.3068 5.33987 87.1798
lradius 20.9298
lwrist -24.7713
lhand -5.4978 9.30914
lfingers 7.12502
lthumb 20.3151 38.2666
rfemur -31.1283 0.720494 15.5546
rtibia 21.334
rfoot -10.1392 5.62486
rtoes 19.0082
lfemur -2.45541 -2.27906 -20.7278
ltibia 16.0368
lfoot -1.60106 -23.0514
ltoes 26.2451
374
root 9.09716 16.2547 -3.62481 -174.137 46.312 -181.881
lowerback -11.3022 -3.26224 -5.41953
upperback 2.08871 -3.53248 -0.293626
thorax 8.91565 -1.97147 2.0627
lowerneck 1.40561 -3.60114 -5.28018
upperneck -5.13739 -4.26243 12.1911
head -1.3438 -2.21296 4.57873
rclavicle 1.55549e-014 -1.15295e-014
rhumerus -40.3605 -24.4555 -73.382
rradius 25.4469
rwrist 34.5433
rhand 1.01342 -5.99227
rfingers 7.12502
rthumb 26.5607 -34.1499
lclavicle 1.55549e-014 -1.15295e-014
lhumerus -22.6729 7.3672 86.3823
lradius 19.6935
lwrist -26.7521
lhand -5.80227 9.2829
lfingers 7.12502
lthumb 20.0224 38.2713
rfemur -31.2884 0.457607 14.8614
rtibia 21.6259
rfoot -6.51268 5.71262
rtoes 23.6415
lfemur -1.5188 -2.88108 -21.4302
ltibia 15.0211
lfoot -1.76139 -22.6476
ltoes 27.0502
375
root 9.25324 16.2556 -3.69131 -173.254 46.2525 -181.002
lowerback -11.6329 -3.24944 -4.6804
upperback 1.9322 -3.62968 -0.0894202
thorax 8.90537 -1.98522 1.83694
lowerneck 1.40254 -3.61799 -5.44131
upperneck -5.31376 -4.26945 12.276
head -1.38803 -2.21801 4.63424
rclavicle -2.71838e-014 1.59028e-015
rhumerus -40.3713 -24.7268 -73.0754
rradius 25.1288
rwrist 35.0967
rhand 0.925469 -5.74925
rfingers 7.12502
rthumb 26.4765 -33.9196
lclavicle -2.71838e-014 1.59028e-015
lhumerus -23.1891 10.3943 85.3733
lradius 18.2888
lwrist -29.2358
lhand -6.26307 9.4236
lfingers 7.12502
lthumb 19.5794 38.4577
rfemur -31.461 -0.15749 15.9722
rtibia 22.0724
rfoot -3.86044 5.71369
rtoes 27.1327
lfemur -0.498156 -3.30566 -20.5685
ltibia 13.7661
lfoot -1.82376 -22.1754
ltoes 27.2015
376
root 9.40715 16.2558 -3.75496 -172.73 46.24 -180.633
lowerback -11.8838 -3.26747 -4.36029
upperback 1.74828 -3.70337 0.042366
thorax 8.84148 -2.00449 1.77723
lowerneck 1.55512 -3.63177 -5.56781
upperneck -5.6413 -4.25818 12.3909
head -1.50399 -2.22231 4.69922
rclavicle 7.66066e-014 -4.77083e-015
rhumerus -40.3473 -24.7062 -72.9334
rradius 24.9909
rwrist 35.4144
rhand 0.88508 -5.60116
rfingers 7.12502
rthumb 26.4379 -33.7773
lclavicle 7.66066e-014 -4.77083e-015
lhumerus -23.8819 14.1406 83.9927
lradius 16.8667
lwrist -32.3221
lhand -6.6484 9.51634
lfingers 7.12502
lthumb 19.2089 38.5877
rfemur -31.5833 -0.991645 16.82
rtibia 22.5034
rfoot -2.62933 5.87058
rtoes 28.2375
lfemur 0.465002 -3.62729 -20.1024
ltibia 12.59
lfoot -1.8544 -21.7511
ltoes 26.4873
377
root 9.55429 16.2562 -3.80875 -171.543 46.4014 -179.628
lowerback -12.3641 -3.15733 -3.55627
upperback 1.63739 -3.67665 0.239004
thorax 8.95274 -1.9562 1.52212
lowerneck 1.41914 -3.70348 -5.4974
upperneck -5.93239 -4.30991 12.461
head -1.56118 -2.24875 4.71112
rclavicle 2.80783e-014 1.19271e-014
rhumerus -40.1417 -25.1124 -72.732
rradius 24.7847
rwrist 35.9209
rhand 0.801541 -5.20055
rfingers 7.12502
rthumb 26.3579 -33.3887
lclavicle 2.80783e-014 1.19271e-014
lhumerus -24.4834 18.2074 82.2714
lradius 15.4557
lwrist -35.8299
lhand -6.84895 9.65794
lfingers 7.12502
lthumb 19.0161 38.7484
rfemur -31.8445 -1.1765 18.0262
rtibia 22.8478
rfoot -2.23668 6.43793
rtoes 28.1304
lfemur 0.843462 -4.02211 -19.184
ltibia 12.0976
lfoot -2.32525 -21.1703
ltoes 25.2478
